<svg width="180" height="180" viewBox="0 0 180 180" fill="none" xmlns="http://www.w3.org/2000/svg">
<g clip-path="url(#clip0_10_106)">
<rect width="180" height="180" rx="28.125" fill="#040C14"/>
<mask id="mask0_10_106" style="mask-type:alpha" maskUnits="userSpaceOnUse" x="23" y="23" width="134" height="134">
<path d="M90 46.7316C90.0073 44.257 89.5197 41.8059 88.5658 39.5225C87.612 37.2391 86.2111 35.1695 84.4457 33.4354C82.6803 31.7013 80.586 30.3377 78.2859 29.4249C75.9858 28.5121 73.5264 28.0684 71.0523 28.1199C68.5782 28.1715 66.1394 28.7173 63.8793 29.7252C61.6193 30.7331 59.5836 32.1827 57.8919 33.9889C56.2003 35.795 54.887 37.9212 54.0291 40.2424C53.1712 42.5635 52.7861 45.0328 52.8965 47.505C49.2598 48.44 45.8836 50.1904 43.0235 52.6235C40.1635 55.0567 37.8946 58.1087 36.3887 61.5485C34.8828 64.9883 34.1794 68.7257 34.3318 72.4776C34.4842 76.2295 35.4883 79.8976 37.2682 83.2039C34.1387 85.7464 31.6778 89.0149 30.0996 92.7253C28.5213 96.4357 27.8736 100.476 28.2127 104.493C28.5518 108.511 29.8674 112.385 32.0452 115.779C34.2229 119.172 37.1968 121.982 40.7082 123.964C40.2746 127.319 40.5333 130.727 41.4685 133.978C42.4036 137.229 43.9953 140.253 46.1452 142.865C48.2951 145.477 50.9576 147.62 53.9683 149.162C56.9789 150.704 60.2738 151.613 63.6494 151.832C67.025 152.051 70.4097 151.576 73.5945 150.436C76.7792 149.295 79.6963 147.514 82.1658 145.202C84.6352 142.89 86.6044 140.097 87.9519 136.994C89.2993 133.891 89.9964 130.545 90 127.163V46.7316Z" stroke="#19E5EE" stroke-width="9.84375" stroke-linecap="round" stroke-linejoin="round"/>
<path d="M90.0001 46.7316C89.9928 44.257 90.4804 41.8059 91.4343 39.5225C92.3881 37.2391 93.7889 35.1695 95.5543 33.4354C97.3197 31.7013 99.4141 30.3377 101.714 29.4249C104.014 28.5121 106.474 28.0684 108.948 28.1199C111.422 28.1715 113.861 28.7173 116.121 29.7252C118.381 30.7331 120.417 32.1827 122.108 33.9889C123.8 35.795 125.113 37.9212 125.971 40.2424C126.829 42.5635 127.214 45.0328 127.104 47.505C130.74 48.44 134.116 50.1904 136.977 52.6235C139.837 55.0567 142.106 58.1087 143.611 61.5485C145.117 64.9883 145.821 68.7257 145.668 72.4776C145.516 76.2295 144.512 79.8976 142.732 83.2039C145.861 85.7464 148.322 89.0149 149.901 92.7253C151.479 96.4357 152.126 100.476 151.787 104.493C151.448 108.511 150.133 112.385 147.955 115.779C145.777 119.172 142.803 121.982 139.292 123.964C139.726 127.319 139.467 130.727 138.532 133.978C137.596 137.229 136.005 140.253 133.855 142.865C131.705 145.477 129.042 147.62 126.032 149.162C123.021 150.704 119.726 151.613 116.351 151.832C112.975 152.051 109.59 151.576 106.406 150.436C103.221 149.295 100.304 147.514 97.8343 145.202C95.3649 142.89 93.3957 140.097 92.0482 136.994C90.7007 133.891 90.0037 130.545 90.0001 127.163V46.7316Z" stroke="#19E5EE" stroke-width="9.84375" stroke-linecap="round" stroke-linejoin="round"/>
<path d="M108.561 96.2276C103.367 94.4003 98.8308 91.0738 95.527 86.6687C92.2232 82.2636 90.2997 76.9778 90 71.4796C89.7002 76.9778 87.7768 82.2636 84.473 86.6687C81.1691 91.0738 76.6333 94.4003 71.439 96.2276" stroke="#19E5EE" stroke-width="9.84375" stroke-linecap="round" stroke-linejoin="round"/>
<path d="M124.641 56.0121C126.138 53.4172 126.985 50.4984 127.109 47.505" stroke="#19E5EE" stroke-width="9.84375" stroke-linecap="round" stroke-linejoin="round"/>
<path d="M52.8966 47.505C53.019 50.4979 53.8638 53.4167 55.359 56.0121" stroke="#19E5EE" stroke-width="9.84375" stroke-linecap="round" stroke-linejoin="round"/>
<path d="M37.268 83.2101C38.3999 82.2883 39.6111 81.4684 40.8874 80.7601" stroke="#19E5EE" stroke-width="9.84375" stroke-linecap="round" stroke-linejoin="round"/>
<path d="M139.112 80.7601C140.389 81.4684 141.6 82.2883 142.732 83.2101" stroke="#19E5EE" stroke-width="9.84375" stroke-linecap="round" stroke-linejoin="round"/>
<path d="M52.878 127.163C48.6141 127.165 44.422 126.065 40.7081 123.97" stroke="#19E5EE" stroke-width="9.84375" stroke-linecap="round" stroke-linejoin="round"/>
<path d="M139.292 123.97C135.578 126.065 131.386 127.165 127.122 127.163" stroke="#19E5EE" stroke-width="9.84375" stroke-linecap="round" stroke-linejoin="round"/>
</mask>
<g mask="url(#mask0_10_106)">
<rect x="22.9686" y="157.022" width="134.062" height="134.063" transform="rotate(-90 22.9686 157.022)" fill="url(#paint0_linear_10_106)"/>
</g>
</g>
<defs>
<linearGradient id="paint0_linear_10_106" x1="89.9999" y1="157.022" x2="89.9999" y2="291.085" gradientUnits="userSpaceOnUse">
<stop stop-color="#19E5EE"/>
<stop offset="0.51" stop-color="#9C8BFF"/>
<stop offset="1" stop-color="#FFC01F"/>
</linearGradient>
<clipPath id="clip0_10_106">
<rect width="180" height="180" fill="white"/>
</clipPath>
</defs>
</svg>
