<svg width="180" height="180" viewBox="0 0 180 180" fill="none" xmlns="http://www.w3.org/2000/svg">
<g clip-path="url(#clip0_10_106)">
<mask id="mask0_10_106" style="mask-type:alpha" maskUnits="userSpaceOnUse" x="2" y="2" width="176" height="176">
<path d="M90 33.3578C90.0095 30.1183 89.3712 26.9096 88.1225 23.9204C86.8738 20.9313 85.04 18.222 82.7289 15.9519C80.4179 13.6818 77.6762 11.8968 74.6651 10.7018C71.6541 9.50678 68.4345 8.92596 65.1957 8.99347C61.9569 9.06098 58.7643 9.77545 55.8057 11.0949C52.8471 12.4143 50.1821 14.312 47.9677 16.6764C45.7532 19.0408 44.0339 21.8242 42.9108 24.8628C41.7878 27.9014 41.2837 31.1339 41.4283 34.3702C36.6675 35.5943 32.2477 37.8857 28.5036 41.0709C24.7595 44.256 21.7893 48.2514 19.818 52.7544C17.8466 57.2575 16.9258 62.15 17.1253 67.0616C17.3248 71.9732 18.6393 76.775 20.9693 81.1033C16.8725 84.4316 13.651 88.7105 11.585 93.5677C9.51892 98.4249 8.67097 103.713 9.11486 108.973C9.55876 114.233 11.2811 119.304 14.1319 123.747C16.9828 128.189 20.8759 131.867 25.4726 134.462C24.9049 138.853 25.2437 143.315 26.4679 147.571C27.6921 151.826 29.7757 155.786 32.5901 159.205C35.4046 162.624 38.89 165.429 42.8312 167.448C46.7724 169.467 51.0857 170.657 55.5047 170.944C59.9237 171.231 64.3546 170.608 68.5237 169.116C72.6928 167.623 76.5116 165.291 79.7443 162.265C82.9769 159.238 85.5548 155.581 87.3188 151.519C89.0827 147.458 89.9952 143.077 90 138.649V33.3578Z" stroke="#19E5EE" stroke-width="12.8863" stroke-linecap="round" stroke-linejoin="round"/>
<path d="M90.0001 33.3578C89.9905 30.1183 90.6289 26.9096 91.8775 23.9204C93.1262 20.9313 94.96 18.222 97.2711 15.9519C99.5822 13.6818 102.324 11.8968 105.335 10.7018C108.346 9.50677 111.566 8.92595 114.804 8.99346C118.043 9.06097 121.236 9.77544 124.194 11.0949C127.153 12.4143 129.818 14.312 132.032 16.6764C134.247 19.0408 135.966 21.8242 137.089 24.8628C138.212 27.9014 138.716 31.1339 138.572 34.3702C143.333 35.5943 147.752 37.8857 151.496 41.0709C155.241 44.256 158.211 48.2514 160.182 52.7544C162.153 57.2575 163.074 62.15 162.875 67.0616C162.675 71.9732 161.361 76.775 159.031 81.1033C163.128 84.4316 166.349 88.7105 168.415 93.5677C170.481 98.4249 171.329 103.713 170.885 108.973C170.441 114.233 168.719 119.304 165.868 123.747C163.017 128.189 159.124 131.867 154.527 134.462C155.095 138.853 154.756 143.315 153.532 147.571C152.308 151.826 150.224 155.786 147.41 159.205C144.595 162.624 141.11 165.429 137.169 167.448C133.228 169.467 128.914 170.657 124.495 170.944C120.076 171.231 115.645 170.608 111.476 169.116C107.307 167.623 103.488 165.291 100.256 162.265C97.0231 159.238 94.4452 155.581 92.6813 151.519C90.9173 147.458 90.0048 143.077 90.0001 138.649V33.3578Z" stroke="#19E5EE" stroke-width="12.8863" stroke-linecap="round" stroke-linejoin="round"/>
<path d="M114.298 98.1525C107.498 95.7604 101.56 91.4057 97.2352 85.6391C92.9103 79.8724 90.3923 72.9528 89.9999 65.7551C89.6075 72.9528 87.0896 79.8724 82.7646 85.6391C78.4396 91.4057 72.5017 95.7604 65.7019 98.1525" stroke="#19E5EE" stroke-width="12.8863" stroke-linecap="round" stroke-linejoin="round"/>
<path d="M135.348 45.5068C137.308 42.1099 138.417 38.2889 138.579 34.3703" stroke="#19E5EE" stroke-width="12.8863" stroke-linecap="round" stroke-linejoin="round"/>
<path d="M41.4283 34.3703C41.5885 38.2882 42.6945 42.1091 44.6519 45.5068" stroke="#19E5EE" stroke-width="12.8863" stroke-linecap="round" stroke-linejoin="round"/>
<path d="M20.9691 81.1114C22.4508 79.9047 24.0364 78.8314 25.7072 77.9041" stroke="#19E5EE" stroke-width="12.8863" stroke-linecap="round" stroke-linejoin="round"/>
<path d="M154.292 77.9041C155.963 78.8314 157.549 79.9047 159.031 81.1114" stroke="#19E5EE" stroke-width="12.8863" stroke-linecap="round" stroke-linejoin="round"/>
<path d="M41.4039 138.649C35.8221 138.652 30.3343 137.212 25.4725 134.47" stroke="#19E5EE" stroke-width="12.8863" stroke-linecap="round" stroke-linejoin="round"/>
<path d="M154.527 134.47C149.665 137.212 144.178 138.652 138.596 138.649" stroke="#19E5EE" stroke-width="12.8863" stroke-linecap="round" stroke-linejoin="round"/>
</mask>
<g mask="url(#mask0_10_106)">
<rect x="2.24994" y="177.738" width="175.5" height="175.5" transform="rotate(-90 2.24994 177.738)" fill="url(#paint0_linear_10_106)"/>
</g>
</g>
<defs>
<linearGradient id="paint0_linear_10_106" x1="89.9998" y1="177.738" x2="89.9998" y2="353.238" gradientUnits="userSpaceOnUse">
<stop stop-color="#19E5EE"/>
<stop offset="0.51" stop-color="#9C8BFF"/>
<stop offset="1" stop-color="#FFC01F"/>
</linearGradient>
<clipPath id="clip0_10_106">
<rect width="180" height="180" fill="white"/>
</clipPath>
</defs>
</svg>
